<?xml version="1.0" standalone="no"?>
<svg style="background: #fff" xmlns="http://www.w3.org/2000/svg" xmlns:xlink="http://www.w3.org/1999/xlink" version="1.1" width="1035px" height="737px" viewBox="-0.5 -0.5 1035 737"><defs><style>* {margin: 0px; padding: 0px;}</style><clipPath id="mx-clip-443-38-268-34-0"><rect x="443" y="38" width="268" height="34"/></clipPath><clipPath id="mx-clip-443-72-268-34-0"><rect x="443" y="72" width="268" height="34"/></clipPath><clipPath id="mx-clip-443-106-268-30-0"><rect x="443" y="106" width="268" height="30"/></clipPath><clipPath id="mx-clip-57-35-271-34-0"><rect x="57" y="35" width="271" height="34"/></clipPath><clipPath id="mx-clip-57-69-271-30-0"><rect x="57" y="69" width="271" height="30"/></clipPath><clipPath id="mx-clip-57-99-271-34-0"><rect x="57" y="99" width="271" height="34"/></clipPath><clipPath id="mx-clip-57-262-272-34-0"><rect x="57" y="262" width="272" height="34"/></clipPath><clipPath id="mx-clip-57-296-272-30-0"><rect x="57" y="296" width="272" height="30"/></clipPath><clipPath id="mx-clip-57-326-272-34-0"><rect x="57" y="326" width="272" height="34"/></clipPath><clipPath id="mx-clip-441-262-456-34-0"><rect x="441" y="262" width="456" height="34"/></clipPath><clipPath id="mx-clip-441-296-456-30-0"><rect x="441" y="296" width="456" height="30"/></clipPath><clipPath id="mx-clip-441-326-456-34-0"><rect x="441" y="326" width="456" height="34"/></clipPath><clipPath id="mx-clip-441-360-456-30-0"><rect x="441" y="360" width="456" height="30"/></clipPath><clipPath id="mx-clip-441-390-456-34-0"><rect x="441" y="390" width="456" height="34"/></clipPath><clipPath id="mx-clip-441-424-456-30-0"><rect x="441" y="424" width="456" height="30"/></clipPath><clipPath id="mx-clip-596-632-183-34-0"><rect x="596" y="632" width="183" height="34"/></clipPath><clipPath id="mx-clip-596-666-183-34-0"><rect x="596" y="666" width="183" height="34"/></clipPath><clipPath id="mx-clip-380-633-167-34-0"><rect x="380" y="633" width="167" height="34"/></clipPath><clipPath id="mx-clip-380-667-167-34-0"><rect x="380" y="667" width="167" height="34"/></clipPath><clipPath id="mx-clip-380-701-167-34-0"><rect x="380" y="701" width="167" height="34"/></clipPath><clipPath id="mx-clip-863-503-167-34-0"><rect x="863" y="503" width="167" height="34"/></clipPath></defs><g><path d="M 439 32.5 L 439 6.5 L 715 6.5 L 715 32.5" fill="#ffff00" stroke="#000000" stroke-miterlimit="10" pointer-events="none"/><path d="M 439 32.5 L 439 130.5 L 715 130.5 L 715 32.5" fill="none" stroke="#000000" stroke-miterlimit="10" pointer-events="none"/><path d="M 439 32.5 L 715 32.5" fill="none" stroke="#000000" stroke-miterlimit="10" pointer-events="none"/><g fill="#000000" font-family="Verdana" text-anchor="middle" font-size="17px"><text x="575.5" y="25.5">Saving Options</text></g><rect x="439" y="32.5" width="276" height="34" fill="#ffe6cc" stroke="none" pointer-events="none"/><g fill="#000000" font-family="Verdana" clip-path="url(#mx-clip-443-38-268-34-0)" font-size="17px"><text x="444.5" y="55">Saving Period</text></g><g fill="#000000" font-family="Verdana" clip-path="url(#mx-clip-443-72-268-34-0)" font-size="17px"><text x="444.5" y="89">rate</text></g><rect x="439" y="100.5" width="276" height="30" fill="#ffe6cc" stroke="none" pointer-events="none"/><g fill="#000000" font-family="Verdana" clip-path="url(#mx-clip-443-106-268-30-0)" font-size="17px"><text x="444.5" y="123">max_saving_output</text></g><path d="M 53 29.5 L 53 6.5 L 332 6.5 L 332 29.5" fill="#ffff00" stroke="#000000" stroke-miterlimit="10" pointer-events="none"/><path d="M 53 29.5 L 53 127.5 L 332 127.5 L 332 29.5" fill="none" stroke="#000000" stroke-miterlimit="10" pointer-events="none"/><path d="M 53 29.5 L 332 29.5" fill="none" stroke="#000000" stroke-miterlimit="10" pointer-events="none"/><g fill="#000000" font-family="Verdana" text-anchor="middle" font-size="17px"><text x="191" y="24">Travel Plan</text></g><rect x="53" y="29.5" width="279" height="34" fill="#ffe6cc" stroke="none" pointer-events="none"/><g fill="#000000" font-family="Verdana" clip-path="url(#mx-clip-57-35-271-34-0)" font-size="17px"><text x="58.5" y="52">Period that Good for Traveling</text></g><g fill="#000000" font-family="Verdana" clip-path="url(#mx-clip-57-69-271-30-0)" font-size="17px"><text x="58.5" y="86">Cost</text></g><rect x="53" y="93.5" width="279" height="34" fill="#ffe6cc" stroke="none" pointer-events="none"/><g fill="#000000" font-family="Verdana" clip-path="url(#mx-clip-57-99-271-34-0)" font-size="17px"><text x="58.5" y="116">Country</text></g><path d="M 53 256.5 L 53 230.5 L 333 230.5 L 333 256.5" fill="#ffff00" stroke="#000000" stroke-miterlimit="10" pointer-events="none"/><path d="M 53 256.5 L 53 354.5 L 333 354.5 L 333 256.5" fill="none" stroke="#000000" stroke-miterlimit="10" pointer-events="none"/><path d="M 53 256.5 L 333 256.5" fill="none" stroke="#000000" stroke-miterlimit="10" pointer-events="none"/><g fill="#000000" font-family="Verdana" text-anchor="middle" font-size="17px"><text x="191.5" y="249.5">User Porfile</text></g><rect x="53" y="256.5" width="280" height="34" fill="#ffe6cc" stroke="none" pointer-events="none"/><g fill="#000000" font-family="Verdana" clip-path="url(#mx-clip-57-262-272-34-0)" font-size="17px"><text x="58.5" y="279">Age Group</text></g><g fill="#000000" font-family="Verdana" clip-path="url(#mx-clip-57-296-272-30-0)" font-size="17px"><text x="58.5" y="313">Monthly Income Group</text></g><rect x="53" y="320.5" width="280" height="34" fill="#ffe6cc" stroke="none" pointer-events="none"/><g fill="#000000" font-family="Verdana" clip-path="url(#mx-clip-57-326-272-34-0)" font-size="17px"><text x="58.5" y="343">Asset Group</text></g><path d="M 423.04 48.82 L 397 48.59 Q 387 48.5 377 48.59 L 339.71 48.94" fill="none" stroke="#000000" stroke-width="3" stroke-miterlimit="10" pointer-events="none"/><path d="M 440.04 48.97 L 431.5 53.9 L 423.04 48.82 L 431.59 43.9 Z" fill="none" stroke="#000000" stroke-width="3" stroke-miterlimit="10" pointer-events="none"/><path d="M 351.28 41.33 L 336.35 48.97 L 351.42 56.33" fill="none" stroke="#000000" stroke-width="3" stroke-miterlimit="10" pointer-events="none"/><path d="M 421.04 119 L 395 119 Q 385 119 385 109 L 385 89 Q 385 79 375 79 L 339.71 79" fill="none" stroke="#000000" stroke-width="3" stroke-miterlimit="10" pointer-events="none"/><path d="M 438.04 119 L 429.54 124 L 421.04 119 L 429.54 114 Z" fill="none" stroke="#000000" stroke-width="3" stroke-miterlimit="10" pointer-events="none"/><path d="M 351.35 71.5 L 336.35 79 L 351.35 86.5" fill="none" stroke="#000000" stroke-width="3" stroke-miterlimit="10" pointer-events="none"/><path d="M 436.5 256.5 L 436.5 230.5 L 900.5 230.5 L 900.5 256.5" fill="#ffff00" stroke="#000000" stroke-miterlimit="10" pointer-events="none"/><path d="M 436.5 256.5 L 436.5 448.5 L 900.5 448.5 L 900.5 256.5" fill="none" stroke="#000000" stroke-miterlimit="10" pointer-events="none"/><path d="M 436.5 256.5 L 900.5 256.5" fill="none" stroke="#000000" stroke-miterlimit="10" pointer-events="none"/><g fill="#000000" font-family="Verdana" text-anchor="middle" font-size="17px"><text x="667" y="249.5">Saving Product</text></g><rect x="436.5" y="256.5" width="464" height="34" fill="#ffe6cc" stroke="none" pointer-events="none"/><g fill="#000000" font-family="Verdana" clip-path="url(#mx-clip-441-262-456-34-0)" font-size="17px"><text x="442" y="279">fin_prdt_cd</text></g><g fill="#000000" font-family="Verdana" clip-path="url(#mx-clip-441-296-456-30-0)" font-size="17px"><text x="442" y="313">Monthly Income</text></g><rect x="436.5" y="320.5" width="464" height="34" fill="#ffe6cc" stroke="none" pointer-events="none"/><g fill="#000000" font-family="Verdana" clip-path="url(#mx-clip-441-326-456-34-0)" font-size="17px"><text x="442" y="343">Assets</text></g><g fill="#000000" font-family="Verdana" clip-path="url(#mx-clip-441-360-456-30-0)" font-size="17px"><text x="442" y="377">Number of subscribers Group by Age</text></g><rect x="436.5" y="384.5" width="464" height="34" fill="#ffe6cc" stroke="none" pointer-events="none"/><g fill="#000000" font-family="Verdana" clip-path="url(#mx-clip-441-390-456-34-0)" font-size="17px"><text x="442" y="407">Number of subscribers Group by Monthly Income</text></g><g fill="#000000" font-family="Verdana" clip-path="url(#mx-clip-441-424-456-30-0)" font-size="17px"><text x="442" y="441">Number of subscribers Group by Asset</text></g><path d="M 348.96 269 L 391 269 Q 401 269 401 279 L 401 363 Q 401 373 411 373 L 430.29 373" fill="none" stroke="#000000" stroke-width="3" stroke-miterlimit="10" pointer-events="none"/><path d="M 331.96 269 L 340.46 264 L 348.96 269 L 340.46 274 Z" fill="none" stroke="#000000" stroke-width="3" stroke-miterlimit="10" pointer-events="none"/><path d="M 418.65 380.5 L 433.65 373 L 418.65 365.5" fill="none" stroke="#000000" stroke-width="3" stroke-miterlimit="10" pointer-events="none"/><path d="M 331 320.96 L 331 311.98 Q 331 303 341 303 L 373 303 Q 383 303 383 313 L 383 397 Q 383 407 393 407 L 432.29 407" fill="none" stroke="#000000" stroke-width="3" stroke-miterlimit="10" pointer-events="none"/><path d="M 331 303.96 L 336 312.46 L 331 320.96 L 326 312.46 Z" fill="none" stroke="#000000" stroke-width="3" stroke-miterlimit="10" pointer-events="none"/><path d="M 420.65 414.5 L 435.65 407 L 420.65 399.5" fill="none" stroke="#000000" stroke-width="3" stroke-miterlimit="10" pointer-events="none"/><path d="M 354.96 341 L 357.98 341 Q 361 341 361 351 L 361 423 Q 361 433 371 433 L 429.79 433" fill="none" stroke="#000000" stroke-width="3" stroke-miterlimit="10" pointer-events="none"/><path d="M 337.96 341 L 346.46 336 L 354.96 341 L 346.46 346 Z" fill="none" stroke="#000000" stroke-width="3" stroke-miterlimit="10" pointer-events="none"/><path d="M 418.15 440.5 L 433.15 433 L 418.15 425.5" fill="none" stroke="#000000" stroke-width="3" stroke-miterlimit="10" pointer-events="none"/><path d="M 35.04 83 L 26.02 83 Q 17 83 17 93 L 17 145 Q 17 155 27 155 L 743 155 Q 753 155 753 145 L 753 129 Q 753 119 743 119 L 721.71 119" fill="none" stroke="#000000" stroke-width="3" stroke-miterlimit="10" pointer-events="none"/><path d="M 52.04 83 L 43.54 88 L 35.04 83 L 43.54 78 Z" fill="none" stroke="#000000" stroke-width="3" stroke-miterlimit="10" pointer-events="none"/><path d="M 733.35 111.5 L 718.35 119 L 733.35 126.5" fill="none" stroke="#000000" stroke-width="3" stroke-miterlimit="10" pointer-events="none"/><path d="M 592 627 L 592 601 L 783 601 L 783 627" fill="#ffff00" stroke="#000000" stroke-miterlimit="10" pointer-events="none"/><path d="M 592 627 L 592 695 L 783 695 L 783 627" fill="none" stroke="#000000" stroke-miterlimit="10" pointer-events="none"/><path d="M 592 627 L 783 627" fill="none" stroke="#000000" stroke-miterlimit="10" pointer-events="none"/><g fill="#000000" font-family="Verdana" text-anchor="middle" font-size="17px"><text x="686" y="620">Post</text></g><rect x="592" y="627" width="191" height="34" fill="#ffe6cc" stroke="none" pointer-events="none"/><g fill="#000000" font-family="Verdana" clip-path="url(#mx-clip-596-632-183-34-0)" font-size="17px"><text x="597.5" y="649.5">Comment_set</text></g><g fill="#000000" font-family="Verdana" clip-path="url(#mx-clip-596-666-183-34-0)" font-size="17px"><text x="597.5" y="683.5">Likes</text></g><path d="M 376 627.5 L 376 601.5 L 551 601.5 L 551 627.5" fill="#ffff00" stroke="#000000" stroke-miterlimit="10" pointer-events="none"/><path d="M 376 627.5 L 376 729.5 L 551 729.5 L 551 627.5" fill="none" stroke="#000000" stroke-miterlimit="10" pointer-events="none"/><path d="M 376 627.5 L 551 627.5" fill="none" stroke="#000000" stroke-miterlimit="10" pointer-events="none"/><g fill="#000000" font-family="Verdana" text-anchor="middle" font-size="17px"><text x="462" y="620.5">Comment</text></g><rect x="376" y="627.5" width="175" height="34" fill="#ffe6cc" stroke="none" pointer-events="none"/><g fill="#000000" font-family="Verdana" clip-path="url(#mx-clip-380-633-167-34-0)" font-size="17px"><text x="381.5" y="650">Post</text></g><g fill="#000000" font-family="Verdana" clip-path="url(#mx-clip-380-667-167-34-0)" font-size="17px"><text x="381.5" y="684">Likes</text></g><rect x="376" y="695.5" width="175" height="34" fill="#ffe6cc" stroke="none" pointer-events="none"/><g fill="#000000" font-family="Verdana" clip-path="url(#mx-clip-380-701-167-34-0)" font-size="17px"><text x="381.5" y="718">Parent(대댓글)</text></g><path d="M 568.96 617 L 571.98 617 Q 575 617 575 627 L 575 707 Q 575 717 565 717 L 551.71 717" fill="none" stroke="#000000" stroke-width="3" stroke-miterlimit="10" pointer-events="none"/><path d="M 551.96 617 L 560.46 612 L 568.96 617 L 560.46 622 Z" fill="none" stroke="#000000" stroke-width="3" stroke-miterlimit="10" pointer-events="none"/><path d="M 563.35 709.5 L 548.35 717 L 563.35 724.5" fill="none" stroke="#000000" stroke-width="3" stroke-miterlimit="10" pointer-events="none"/><path d="M 631 595.04 L 631 575 Q 631 565 621 565 L 479 565 Q 469 565 469 575 L 469 597 Q 469 607 471.35 607 L 473.71 607" fill="none" stroke="#000000" stroke-width="3" stroke-miterlimit="10" pointer-events="none"/><path d="M 631 612.04 L 626 603.54 L 631 595.04 L 636 603.54 Z" fill="none" stroke="#000000" stroke-width="3" stroke-miterlimit="10" pointer-events="none"/><path d="M 485.35 599.5 L 470.35 607 L 485.35 614.5" fill="none" stroke="#000000" stroke-width="3" stroke-miterlimit="10" pointer-events="none"/><path d="M 859 498 L 859 472 L 1034 472 L 1034 498" fill="#ffff00" stroke="#000000" stroke-miterlimit="10" pointer-events="none"/><path d="M 859 498 L 859 532 L 1034 532 L 1034 498" fill="none" stroke="#000000" stroke-miterlimit="10" pointer-events="none"/><path d="M 859 498 L 1034 498" fill="none" stroke="#000000" stroke-miterlimit="10" pointer-events="none"/><g fill="#000000" font-family="Verdana" text-anchor="middle" font-size="17px"><text x="945" y="491">Saving Debate</text></g><rect x="859" y="498" width="175" height="34" fill="#ffe6cc" stroke="none" pointer-events="none"/><g fill="#000000" font-family="Verdana" clip-path="url(#mx-clip-863-503-167-34-0)" font-size="17px"><text x="864.5" y="520.5">Content</text></g><path d="M 916.96 245 L 977 245 Q 987 245 987 255 L 987 468.29" fill="none" stroke="#000000" stroke-width="3" stroke-miterlimit="10" pointer-events="none"/><path d="M 899.96 245 L 908.46 240 L 916.96 245 L 908.46 250 Z" fill="none" stroke="#000000" stroke-width="3" stroke-miterlimit="10" pointer-events="none"/><path d="M 979.5 456.65 L 987 471.65 L 994.5 456.65" fill="none" stroke="#000000" stroke-width="3" stroke-miterlimit="10" pointer-events="none"/><path d="M 5 544 L 5 518 L 285 518 L 285 544" fill="#ffff00" stroke="#000000" stroke-miterlimit="10" pointer-events="none"/><path d="M 5 544 L 5 546 L 285 546 L 285 544" fill="none" stroke="#000000" stroke-miterlimit="10" pointer-events="none"/><path d="M 5 544 L 285 544" fill="none" stroke="#000000" stroke-miterlimit="10" pointer-events="none"/><g fill="#000000" font-family="Verdana" text-anchor="middle" font-size="17px"><text x="143.5" y="537">User</text></g><path d="M 149 499.04 L 149 361.71" fill="none" stroke="#000000" stroke-width="3" stroke-miterlimit="10" pointer-events="none"/><path d="M 149 516.04 L 144 507.54 L 149 499.04 L 154 507.54 Z" fill="none" stroke="#000000" stroke-width="3" stroke-miterlimit="10" pointer-events="none"/><path d="M 156.5 373.35 L 149 358.35 L 141.5 373.35" fill="none" stroke="#000000" stroke-width="3" stroke-miterlimit="10" pointer-events="none"/><path d="M 173 558.96 L 173 605 Q 173 615 183 615 L 372.29 615" fill="none" stroke="#000000" stroke-width="3" stroke-miterlimit="10" pointer-events="none"/><path d="M 173 541.96 L 178 550.46 L 173 558.96 L 168 550.46 Z" fill="none" stroke="#000000" stroke-width="3" stroke-miterlimit="10" pointer-events="none"/><path d="M 360.65 622.5 L 375.65 615 L 360.65 607.5" fill="none" stroke="#000000" stroke-width="3" stroke-miterlimit="10" pointer-events="none"/><path d="M 287 548.96 L 287 539.98 Q 287 531 297 531 L 655 531 Q 665 531 665 541 L 665 604.29" fill="none" stroke="#000000" stroke-width="3" stroke-miterlimit="10" pointer-events="none"/><path d="M 287 531.96 L 292 540.46 L 287 548.96 L 282 540.46 Z" fill="none" stroke="#000000" stroke-width="3" stroke-miterlimit="10" pointer-events="none"/><path d="M 657.5 592.65 L 665 607.65 L 672.5 592.65" fill="none" stroke="#000000" stroke-width="3" stroke-miterlimit="10" pointer-events="none"/><path d="M 839 213.04 L 839 27 Q 839 17 829 17 L 721.71 17" fill="none" stroke="#000000" stroke-width="3" stroke-miterlimit="10" pointer-events="none"/><path d="M 839 230.04 L 834 221.54 L 839 213.04 L 844 221.54 Z" fill="none" stroke="#000000" stroke-width="3" stroke-miterlimit="10" pointer-events="none"/><path d="M 733.35 9.5 L 718.35 17 L 733.35 24.5" fill="none" stroke="#000000" stroke-width="3" stroke-miterlimit="10" pointer-events="none"/><path d="M 225 505.04 L 225 493 Q 225 483 235 483 L 854.29 483" fill="none" stroke="#000000" stroke-width="3" stroke-miterlimit="10" pointer-events="none"/><path d="M 225 522.04 L 220 513.54 L 225 505.04 L 230 513.54 Z" fill="none" stroke="#000000" stroke-width="3" stroke-miterlimit="10" pointer-events="none"/><path d="M 842.65 490.5 L 857.65 483 L 842.65 475.5" fill="none" stroke="#000000" stroke-width="3" stroke-miterlimit="10" pointer-events="none"/></g></svg>