<?xml version="1.0" standalone="no"?>
<svg style="background: #fff" xmlns="http://www.w3.org/2000/svg" xmlns:xlink="http://www.w3.org/1999/xlink" version="1.1" width="1065px" height="785px" viewBox="-0.5 -0.5 1065 785"><defs><style>* {margin: 0px; padding: 0px;}</style><clipPath id="mx-clip-473-123-268-34-0"><rect x="473" y="123" width="268" height="34"/></clipPath><clipPath id="mx-clip-473-157-268-34-0"><rect x="473" y="157" width="268" height="34"/></clipPath><clipPath id="mx-clip-473-191-268-30-0"><rect x="473" y="191" width="268" height="30"/></clipPath><clipPath id="mx-clip-87-120-271-34-0"><rect x="87" y="120" width="271" height="34"/></clipPath><clipPath id="mx-clip-87-154-271-30-0"><rect x="87" y="154" width="271" height="30"/></clipPath><clipPath id="mx-clip-87-184-271-34-0"><rect x="87" y="184" width="271" height="34"/></clipPath><clipPath id="mx-clip-87-347-272-34-0"><rect x="87" y="347" width="272" height="34"/></clipPath><clipPath id="mx-clip-87-381-272-30-0"><rect x="87" y="381" width="272" height="30"/></clipPath><clipPath id="mx-clip-87-411-272-34-0"><rect x="87" y="411" width="272" height="34"/></clipPath><clipPath id="mx-clip-471-347-456-34-0"><rect x="471" y="347" width="456" height="34"/></clipPath><clipPath id="mx-clip-471-381-456-30-0"><rect x="471" y="381" width="456" height="30"/></clipPath><clipPath id="mx-clip-471-411-456-34-0"><rect x="471" y="411" width="456" height="34"/></clipPath><clipPath id="mx-clip-471-445-456-30-0"><rect x="471" y="445" width="456" height="30"/></clipPath><clipPath id="mx-clip-471-475-456-34-0"><rect x="471" y="475" width="456" height="34"/></clipPath><clipPath id="mx-clip-471-509-456-30-0"><rect x="471" y="509" width="456" height="30"/></clipPath><clipPath id="mx-clip-659-717-183-34-0"><rect x="659" y="717" width="183" height="34"/></clipPath><clipPath id="mx-clip-410-718-167-34-0"><rect x="410" y="718" width="167" height="34"/></clipPath><clipPath id="mx-clip-410-752-167-34-0"><rect x="410" y="752" width="167" height="34"/></clipPath><clipPath id="mx-clip-893-588-167-34-0"><rect x="893" y="588" width="167" height="34"/></clipPath></defs><g><path d="M 469 117.5 L 469 91.5 L 745 91.5 L 745 117.5" fill="#ffff00" stroke="#000000" stroke-miterlimit="10" pointer-events="none"/><path d="M 469 117.5 L 469 215.5 L 745 215.5 L 745 117.5" fill="none" stroke="#000000" stroke-miterlimit="10" pointer-events="none"/><path d="M 469 117.5 L 745 117.5" fill="none" stroke="#000000" stroke-miterlimit="10" pointer-events="none"/><g fill="#000000" font-family="Verdana" text-anchor="middle" font-size="17px"><text x="606.5" y="111.5">Saving Options</text></g><rect x="469" y="117.5" width="276" height="34" fill="#ffe6cc" stroke="none" pointer-events="none"/><g fill="#000000" font-family="Verdana" clip-path="url(#mx-clip-473-123-268-34-0)" font-size="17px"><text x="474.5" y="140">Saving Period</text></g><g fill="#000000" font-family="Verdana" clip-path="url(#mx-clip-473-157-268-34-0)" font-size="17px"><text x="474.5" y="174">rate</text></g><rect x="469" y="185.5" width="276" height="30" fill="#ffe6cc" stroke="none" pointer-events="none"/><g fill="#000000" font-family="Verdana" clip-path="url(#mx-clip-473-191-268-30-0)" font-size="17px"><text x="474.5" y="208">max_saving_output</text></g><path d="M 83 114.5 L 83 91.5 L 362 91.5 L 362 114.5" fill="#ffff00" stroke="#000000" stroke-miterlimit="10" pointer-events="none"/><path d="M 83 114.5 L 83 212.5 L 362 212.5 L 362 114.5" fill="none" stroke="#000000" stroke-miterlimit="10" pointer-events="none"/><path d="M 83 114.5 L 362 114.5" fill="none" stroke="#000000" stroke-miterlimit="10" pointer-events="none"/><g fill="#000000" font-family="Verdana" text-anchor="middle" font-size="17px"><text x="222" y="110">Travel Plan</text></g><rect x="83" y="114.5" width="279" height="34" fill="#ffe6cc" stroke="none" pointer-events="none"/><g fill="#000000" font-family="Verdana" clip-path="url(#mx-clip-87-120-271-34-0)" font-size="17px"><text x="88.5" y="137">Period that Good for Traveling</text></g><g fill="#000000" font-family="Verdana" clip-path="url(#mx-clip-87-154-271-30-0)" font-size="17px"><text x="88.5" y="171">Cost</text></g><rect x="83" y="178.5" width="279" height="34" fill="#ffe6cc" stroke="none" pointer-events="none"/><g fill="#000000" font-family="Verdana" clip-path="url(#mx-clip-87-184-271-34-0)" font-size="17px"><text x="88.5" y="201">Country</text></g><path d="M 83 341.5 L 83 315.5 L 363 315.5 L 363 341.5" fill="#ffff00" stroke="#000000" stroke-miterlimit="10" pointer-events="none"/><path d="M 83 341.5 L 83 439.5 L 363 439.5 L 363 341.5" fill="none" stroke="#000000" stroke-miterlimit="10" pointer-events="none"/><path d="M 83 341.5 L 363 341.5" fill="none" stroke="#000000" stroke-miterlimit="10" pointer-events="none"/><g fill="#000000" font-family="Verdana" text-anchor="middle" font-size="17px"><text x="222.5" y="335.5">User Porfile</text></g><rect x="83" y="341.5" width="280" height="34" fill="#ffe6cc" stroke="none" pointer-events="none"/><g fill="#000000" font-family="Verdana" clip-path="url(#mx-clip-87-347-272-34-0)" font-size="17px"><text x="88.5" y="364">Age Group</text></g><g fill="#000000" font-family="Verdana" clip-path="url(#mx-clip-87-381-272-30-0)" font-size="17px"><text x="88.5" y="398">Monthly Income Group</text></g><rect x="83" y="405.5" width="280" height="34" fill="#ffe6cc" stroke="none" pointer-events="none"/><g fill="#000000" font-family="Verdana" clip-path="url(#mx-clip-87-411-272-34-0)" font-size="17px"><text x="88.5" y="428">Asset Group</text></g><path d="M 454.04 133.17 L 426 133.41 Q 416 133.5 406 133.59 L 369.71 133.94" fill="none" stroke="#000000" stroke-width="3" stroke-miterlimit="10" pointer-events="none"/><path d="M 471.04 133.03 L 462.58 138.1 L 454.04 133.17 L 462.5 128.1 Z" fill="none" stroke="#000000" stroke-width="3" stroke-miterlimit="10" pointer-events="none"/><path d="M 381.28 126.33 L 366.35 133.97 L 381.42 141.33" fill="none" stroke="#000000" stroke-width="3" stroke-miterlimit="10" pointer-events="none"/><path d="M 463.29 205 L 426 205 Q 416 205 416 195 L 416 174 Q 416 164 406 164 L 368.71 164" fill="none" stroke="#000000" stroke-width="3" stroke-miterlimit="10" pointer-events="none"/><path d="M 449.65 213.5 L 466.65 205 L 449.65 196.5" fill="none" stroke="#000000" stroke-width="3" stroke-miterlimit="10" pointer-events="none"/><path d="M 380.35 156.5 L 365.35 164 L 380.35 171.5" fill="none" stroke="#000000" stroke-width="3" stroke-miterlimit="10" pointer-events="none"/><path d="M 466.5 341.5 L 466.5 315.5 L 930.5 315.5 L 930.5 341.5" fill="#ffff00" stroke="#000000" stroke-miterlimit="10" pointer-events="none"/><path d="M 466.5 341.5 L 466.5 533.5 L 930.5 533.5 L 930.5 341.5" fill="none" stroke="#000000" stroke-miterlimit="10" pointer-events="none"/><path d="M 466.5 341.5 L 930.5 341.5" fill="none" stroke="#000000" stroke-miterlimit="10" pointer-events="none"/><g fill="#000000" font-family="Verdana" text-anchor="middle" font-size="17px"><text x="698" y="335.5">Saving Product</text></g><rect x="466.5" y="341.5" width="464" height="34" fill="#ffe6cc" stroke="none" pointer-events="none"/><g fill="#000000" font-family="Verdana" clip-path="url(#mx-clip-471-347-456-34-0)" font-size="17px"><text x="472" y="364">fin_prdt_cd</text></g><g fill="#000000" font-family="Verdana" clip-path="url(#mx-clip-471-381-456-30-0)" font-size="17px"><text x="472" y="398">Monthly Income</text></g><rect x="466.5" y="405.5" width="464" height="34" fill="#ffe6cc" stroke="none" pointer-events="none"/><g fill="#000000" font-family="Verdana" clip-path="url(#mx-clip-471-411-456-34-0)" font-size="17px"><text x="472" y="428">Assets</text></g><g fill="#000000" font-family="Verdana" clip-path="url(#mx-clip-471-445-456-30-0)" font-size="17px"><text x="472" y="462">Number of subscribers Group by Age</text></g><rect x="466.5" y="469.5" width="464" height="34" fill="#ffe6cc" stroke="none" pointer-events="none"/><g fill="#000000" font-family="Verdana" clip-path="url(#mx-clip-471-475-456-34-0)" font-size="17px"><text x="472" y="492">Number of subscribers Group by Monthly Income</text></g><g fill="#000000" font-family="Verdana" clip-path="url(#mx-clip-471-509-456-30-0)" font-size="17px"><text x="472" y="526">Number of subscribers Group by Asset</text></g><path d="M 379.96 354 L 420 354 Q 430 354 430 364 L 430 447 Q 430 457 440 457 L 460.29 457" fill="none" stroke="#000000" stroke-width="3" stroke-miterlimit="10" pointer-events="none"/><path d="M 362.96 354 L 371.46 349 L 379.96 354 L 371.46 359 Z" fill="none" stroke="#000000" stroke-width="3" stroke-miterlimit="10" pointer-events="none"/><path d="M 448.65 464.5 L 463.65 457 L 448.65 449.5" fill="none" stroke="#000000" stroke-width="3" stroke-miterlimit="10" pointer-events="none"/><path d="M 380.96 387 L 403 387 Q 413 387 413 397 L 413 482 Q 413 492 423 492 L 462.29 492" fill="none" stroke="#000000" stroke-width="3" stroke-miterlimit="10" pointer-events="none"/><path d="M 363.96 387 L 372.46 382 L 380.96 387 L 372.46 392 Z" fill="none" stroke="#000000" stroke-width="3" stroke-miterlimit="10" pointer-events="none"/><path d="M 450.65 499.5 L 465.65 492 L 450.65 484.5" fill="none" stroke="#000000" stroke-width="3" stroke-miterlimit="10" pointer-events="none"/><path d="M 383.96 426 L 387.48 426 Q 391 426 391 436 L 391 509 Q 391 519 401 519 L 459.79 519" fill="none" stroke="#000000" stroke-width="3" stroke-miterlimit="10" pointer-events="none"/><path d="M 366.96 426 L 375.46 421 L 383.96 426 L 375.46 431 Z" fill="none" stroke="#000000" stroke-width="3" stroke-miterlimit="10" pointer-events="none"/><path d="M 448.15 526.5 L 463.15 519 L 448.15 511.5" fill="none" stroke="#000000" stroke-width="3" stroke-miterlimit="10" pointer-events="none"/><path d="M 655 712 L 655 686 L 846 686 L 846 712" fill="#ffff00" stroke="#000000" stroke-miterlimit="10" pointer-events="none"/><path d="M 655 712 L 655 746 L 846 746 L 846 712" fill="none" stroke="#000000" stroke-miterlimit="10" pointer-events="none"/><path d="M 655 712 L 846 712" fill="none" stroke="#000000" stroke-miterlimit="10" pointer-events="none"/><g fill="#000000" font-family="Verdana" text-anchor="middle" font-size="17px"><text x="750" y="706">Post</text></g><rect x="655" y="712" width="191" height="34" fill="#ffe6cc" stroke="none" pointer-events="none"/><g fill="#000000" font-family="Verdana" clip-path="url(#mx-clip-659-717-183-34-0)" font-size="17px"><text x="660.5" y="734.5">Comment_set</text></g><path d="M 406 712.5 L 406 686.5 L 581 686.5 L 581 712.5" fill="#ffff00" stroke="#000000" stroke-miterlimit="10" pointer-events="none"/><path d="M 406 712.5 L 406 780.5 L 581 780.5 L 581 712.5" fill="none" stroke="#000000" stroke-miterlimit="10" pointer-events="none"/><path d="M 406 712.5 L 581 712.5" fill="none" stroke="#000000" stroke-miterlimit="10" pointer-events="none"/><g fill="#000000" font-family="Verdana" text-anchor="middle" font-size="17px"><text x="493" y="706.5">Comment</text></g><rect x="406" y="712.5" width="175" height="34" fill="#ffe6cc" stroke="none" pointer-events="none"/><g fill="#000000" font-family="Verdana" clip-path="url(#mx-clip-410-718-167-34-0)" font-size="17px"><text x="411.5" y="735">Post</text></g><g fill="#000000" font-family="Verdana" clip-path="url(#mx-clip-410-752-167-34-0)" font-size="17px"><text x="411.5" y="769">Parent(대댓글)</text></g><path d="M 599.96 766 L 628 766 Q 638 766 638 756 L 638 707 Q 638 697 628 697 L 586.71 697" fill="none" stroke="#000000" stroke-width="3" stroke-miterlimit="10" pointer-events="none"/><path d="M 582.96 766 L 591.46 761 L 599.96 766 L 591.46 771 Z" fill="none" stroke="#000000" stroke-width="3" stroke-miterlimit="10" pointer-events="none"/><path d="M 598.35 689.5 L 583.35 697 L 598.35 704.5" fill="none" stroke="#000000" stroke-width="3" stroke-miterlimit="10" pointer-events="none"/><path d="M 693 666.04 L 693 658.02 Q 693 650 683 650 L 508 650 Q 498 650 498 660 L 498 684.29" fill="none" stroke="#000000" stroke-width="3" stroke-miterlimit="10" pointer-events="none"/><path d="M 693 683.04 L 688 674.54 L 693 666.04 L 698 674.54 Z" fill="none" stroke="#000000" stroke-width="3" stroke-miterlimit="10" pointer-events="none"/><path d="M 490.5 672.65 L 498 687.65 L 505.5 672.65" fill="none" stroke="#000000" stroke-width="3" stroke-miterlimit="10" pointer-events="none"/><path d="M 889 583 L 889 557 L 1064 557 L 1064 583" fill="#ffff00" stroke="#000000" stroke-miterlimit="10" pointer-events="none"/><path d="M 889 583 L 889 617 L 1064 617 L 1064 583" fill="none" stroke="#000000" stroke-miterlimit="10" pointer-events="none"/><path d="M 889 583 L 1064 583" fill="none" stroke="#000000" stroke-miterlimit="10" pointer-events="none"/><g fill="#000000" font-family="Verdana" text-anchor="middle" font-size="17px"><text x="976" y="577">Saving Debate</text></g><rect x="889" y="583" width="175" height="34" fill="#ffe6cc" stroke="none" pointer-events="none"/><g fill="#000000" font-family="Verdana" clip-path="url(#mx-clip-893-588-167-34-0)" font-size="17px"><text x="894.5" y="605.5">Content</text></g><path d="M 947.96 331 L 1007 331 Q 1017 331 1017 341 L 1017 553.29" fill="none" stroke="#000000" stroke-width="3" stroke-miterlimit="10" pointer-events="none"/><path d="M 930.96 331 L 939.46 326 L 947.96 331 L 939.46 336 Z" fill="none" stroke="#000000" stroke-width="3" stroke-miterlimit="10" pointer-events="none"/><path d="M 1009.5 541.65 L 1017 556.65 L 1024.5 541.65" fill="none" stroke="#000000" stroke-width="3" stroke-miterlimit="10" pointer-events="none"/><path d="M 35 629 L 35 603 L 315 603 L 315 629" fill="#ffff00" stroke="#000000" stroke-miterlimit="10" pointer-events="none"/><path d="M 35 629 L 35 631 L 315 631 L 315 629" fill="none" stroke="#000000" stroke-miterlimit="10" pointer-events="none"/><path d="M 35 629 L 315 629" fill="none" stroke="#000000" stroke-miterlimit="10" pointer-events="none"/><g fill="#000000" font-family="Verdana" text-anchor="middle" font-size="17px"><text x="174.5" y="623">User</text></g><path d="M 179 583.04 L 179 515 Q 179 505 169 505 L 27 505 Q 17 505 17 495 L 17 338 Q 17 328 27 328 L 80.29 328" fill="none" stroke="#000000" stroke-width="3" stroke-miterlimit="10" pointer-events="none"/><path d="M 179 600.04 L 174 591.54 L 179 583.04 L 184 591.54 Z" fill="none" stroke="#000000" stroke-width="3" stroke-miterlimit="10" pointer-events="none"/><path d="M 68.65 335.5 L 83.65 328 L 68.65 320.5" fill="none" stroke="#000000" stroke-width="3" stroke-miterlimit="10" pointer-events="none"/><path d="M 203 643.96 L 203 649.48 Q 203 655 213 655 L 415 655 Q 425 655 425 665 L 425 689.29" fill="none" stroke="#000000" stroke-width="3" stroke-miterlimit="10" pointer-events="none"/><path d="M 203 626.96 L 208 635.46 L 203 643.96 L 198 635.46 Z" fill="none" stroke="#000000" stroke-width="3" stroke-miterlimit="10" pointer-events="none"/><path d="M 417.5 677.65 L 425 692.65 L 432.5 677.65" fill="none" stroke="#000000" stroke-width="3" stroke-miterlimit="10" pointer-events="none"/><path d="M 335.96 615 L 718 615 Q 728 615 728 625 L 728 679.29" fill="none" stroke="#000000" stroke-width="3" stroke-miterlimit="10" pointer-events="none"/><path d="M 318.96 615 L 327.46 610 L 335.96 615 L 327.46 620 Z" fill="none" stroke="#000000" stroke-width="3" stroke-miterlimit="10" pointer-events="none"/><path d="M 720.5 667.65 L 728 682.65 L 735.5 667.65" fill="none" stroke="#000000" stroke-width="3" stroke-miterlimit="10" pointer-events="none"/><path d="M 868 297.04 L 868 27 Q 868 17 858 17 L 640 17 Q 630 17 630 27 L 630 86.29" fill="none" stroke="#000000" stroke-width="3" stroke-miterlimit="10" pointer-events="none"/><path d="M 868 314.04 L 863 305.54 L 868 297.04 L 873 305.54 Z" fill="none" stroke="#000000" stroke-width="3" stroke-miterlimit="10" pointer-events="none"/><path d="M 622.5 74.65 L 630 89.65 L 637.5 74.65" fill="none" stroke="#000000" stroke-width="3" stroke-miterlimit="10" pointer-events="none"/><path d="M 226 295.04 L 226 287.52 Q 226 280 236 280 L 810 280 Q 820 280 820 270 L 820 117 Q 820 107 810 107 L 754.71 107" fill="none" stroke="#000000" stroke-width="3" stroke-miterlimit="10" pointer-events="none"/><path d="M 226 312.04 L 221 303.54 L 226 295.04 L 231 303.54 Z" fill="none" stroke="#000000" stroke-width="3" stroke-miterlimit="10" pointer-events="none"/><path d="M 766.35 99.5 L 751.35 107 L 766.35 114.5" fill="none" stroke="#000000" stroke-width="3" stroke-miterlimit="10" pointer-events="none"/><path d="M 257 584.04 L 257 574 Q 257 564 267 564 L 885.29 564" fill="none" stroke="#000000" stroke-width="3" stroke-miterlimit="10" pointer-events="none"/><path d="M 257 601.04 L 252 592.54 L 257 584.04 L 262 592.54 Z" fill="none" stroke="#000000" stroke-width="3" stroke-miterlimit="10" pointer-events="none"/><path d="M 873.65 571.5 L 888.65 564 L 873.65 556.5" fill="none" stroke="#000000" stroke-width="3" stroke-miterlimit="10" pointer-events="none"/><path d="M 21 731.5 L 21 705.5 L 301 705.5 L 301 731.5" fill="#ffff00" stroke="#000000" stroke-miterlimit="10" pointer-events="none"/><path d="M 21 731.5 L 21 733.5 L 301 733.5 L 301 731.5" fill="none" stroke="#000000" stroke-miterlimit="10" pointer-events="none"/><path d="M 21 731.5 L 301 731.5" fill="none" stroke="#000000" stroke-miterlimit="10" pointer-events="none"/><g fill="#000000" font-family="Verdana" text-anchor="middle" font-size="17px"><text x="160.5" y="725.5">Notify</text></g><path d="M 97 685.54 L 97 679.77 Q 97 674 107 674 L 136 674 Q 146 674 146 664 L 146 634.71" fill="none" stroke="#000000" stroke-width="3" stroke-miterlimit="10" pointer-events="none"/><path d="M 97 702.54 L 92 694.04 L 97 685.54 L 102 694.04 Z" fill="none" stroke="#000000" stroke-width="3" stroke-miterlimit="10" pointer-events="none"/><path d="M 153.5 646.35 L 146 631.35 L 138.5 646.35" fill="none" stroke="#000000" stroke-width="3" stroke-miterlimit="10" pointer-events="none"/><path d="M 389.04 696 L 375 696 Q 365 696 365 706 L 365 713.5 Q 365 721 355 721 L 307.71 721" fill="none" stroke="#000000" stroke-width="3" stroke-miterlimit="10" pointer-events="none"/><path d="M 406.04 696 L 397.54 701 L 389.04 696 L 397.54 691 Z" fill="none" stroke="#000000" stroke-width="3" stroke-miterlimit="10" pointer-events="none"/><path d="M 319.35 713.5 L 304.35 721 L 319.35 728.5" fill="none" stroke="#000000" stroke-width="3" stroke-miterlimit="10" pointer-events="none"/></g></svg>